<svg width="40" height="40" viewBox="0 0 40 40" fill="none" xmlns="http://www.w3.org/2000/svg">
<path d="M14.667 15.3335C14.667 16.4381 13.7716 17.3335 12.667 17.3335C11.5624 17.3335 10.667 16.4381 10.667 15.3335C10.667 14.2289 11.5624 13.3335 12.667 13.3335C13.7716 13.3335 14.667 14.2289 14.667 15.3335Z" stroke="white" stroke-width="1.33333" stroke-linecap="round" stroke-linejoin="round"/>
<path d="M14.667 24.6665C14.667 25.7709 13.7716 26.6665 12.667 26.6665C11.5624 26.6665 10.667 25.7709 10.667 24.6665C10.667 23.5621 11.5624 22.6665 12.667 22.6665C13.7716 22.6665 14.667 23.5621 14.667 24.6665Z" stroke="white" stroke-width="1.33333" stroke-linecap="round" stroke-linejoin="round"/>
<path d="M20.333 15.3335H29.6663" stroke="white" stroke-width="2" stroke-linecap="round" stroke-linejoin="round"/>
<path d="M20.333 24.6665H29.6663" stroke="white" stroke-width="2" stroke-linecap="round" stroke-linejoin="round"/>
</svg>
